# xmcd CD database file
# Copyright (C) 1995-1998 Ti Kan
#
# Track frame offsets:
#	180
#	13303
#	36085
#	46622
#	58820
#	72358
#	83802
#	98002
#	111268
#	125987
#	141412
#	155605
#	169709
#	182151
#	192041
#	203152
#	215899
#	229969
#	242012
#	252481
#	266687
#	280447
#
# Disc length: 3923 seconds
#
# Revision: 1
# Processed by: cddbd v1.4PL0 Copyright (c) Steve Scherf et al.
# Submitted via: CDex 1.30Release
#
DISCID=550f5116
DTITLE=FOREVER LOVE SONG - FOREVER LOVE SONG IV
DYEAR=1900
DGENRE=Blues
TTITLE0=I'LL NEVER FALL IN LOVE AGAIN - BOOBBIE GENTRY
TTITLE1=THOSE WHERE THE DAY - MARY HOPKIN
TTITLE2=DIANA - PAUL ANKA
TTITLE3=EVERGREEN GREEN TREE - CLIFF ANKA
TTITLE4=SAN FRANCISCO - SCOTT MCKENZIE
TTITLE5=I LOVE HOW YOU LVOE ME - BOBBY WINTON
TTITLE6=THE LAST WALTZ - ENGELBERT HUMPERDINCK
TTITLE7=TELL LAURA I LOVE HER - RAY PETERSON
TTITLE8=DONNA DONIA - JOEN BAZE
TTITLE9=STAY A WHILE - THE BELLS
TTITLE10=WALK AWAY - MATT MONRO
TTITLE11=TAMMY - DEBBIE REYNOLDS
TTITLE12=YOUR CHEATING HEART - HANK WILLIAMS
TTITLE13=SEVEN LONELY DAYS - GEORGIN GIBBS
TTITLE14=BIG GIRL DON'T CRY - THE FOUR SEASONS
TTITLE15=GOODBYE JIMMY GOODBYE - KATHY LINDEN
TTITLE16=WHERE HAVE ALL THE FLOWERS GONE - THE KINGSTON TRIO
TTITLE17=PUT YOUR HEAD ON MY SHOULDER - PAUL ANKA
TTITLE18=LIMBO ROCK - CHUBBY CHECKER
TTITLE19=SKUIYAKI - KYU SAKAMOTO
TTITLE20=BESAME MUCHO - TRIO LOS PANCHOS
TTITLE21=DAY-O (BANANA BOAT) - HARRY BELAAFONTE
EXTD=ID3G:   0
EXTT0=
EXTT1=
EXTT2=
EXTT3=
EXTT4=
EXTT5=
EXTT6=
EXTT7=
EXTT8=
EXTT9=
EXTT10=
EXTT11=
EXTT12=
EXTT13=
EXTT14=
EXTT15=
EXTT16=
EXTT17=
EXTT18=
EXTT19=
EXTT20=
EXTT21=
PLAYORDER=
